<?xml version="1.0"?>
<svg width="640" height="480" xmlns="http://www.w3.org/2000/svg" xmlns:svg="http://www.w3.org/2000/svg">
 <!-- Created with SVG-edit - http://svg-edit.googlecode.com/ -->
 <g>
  <title>Layer 1</title>
  <path id="svg_4" d="m103.999985,240.5c0,-129.005524 100.019333,-233.5 223.500015,-233.5c123.480652,0 223.5,104.494476 223.5,233.5c0,129.005524 -100.019348,233.5 -223.5,233.5c-123.480682,0 -223.500015,-104.494476 -223.500015,-233.5z" stroke-linecap="null" stroke-linejoin="null" stroke-dasharray="null" stroke-width="5" stroke="#a86034" fill="#dd964f"/>
  <ellipse id="svg_5" ry="14.5" rx="18.5" cy="43.5" cx="318.5" stroke-linecap="null" stroke-linejoin="null" stroke-dasharray="null" stroke-width="5" stroke="#351101" fill="#511d03"/>
  <ellipse id="svg_6" ry="17.5" rx="18" cy="91.5" cx="415" stroke-linecap="null" stroke-linejoin="null" stroke-dasharray="null" stroke-width="5" stroke="#351101" fill="#511d03"/>
  <ellipse id="svg_7" ry="15" rx="20.5" cy="202" cx="468.5" stroke-linecap="null" stroke-linejoin="null" stroke-dasharray="null" stroke-width="5" stroke="#351101" fill="#511d03"/>
  <ellipse id="svg_8" ry="23" rx="19" cy="158" cx="355" stroke-linecap="null" stroke-linejoin="null" stroke-dasharray="null" stroke-width="5" stroke="#351101" fill="#511d03"/>
  <ellipse id="svg_9" ry="12" rx="16.5" cy="121" cx="242.5" stroke-linecap="null" stroke-linejoin="null" stroke-dasharray="null" stroke-width="5" stroke="#351101" fill="#511d03"/>
  <ellipse id="svg_10" ry="20" rx="18.5" cy="168" cx="168.5" stroke-linecap="null" stroke-linejoin="null" stroke-dasharray="null" stroke-width="5" stroke="#351101" fill="#511d03"/>
  <ellipse id="svg_11" ry="17" rx="21" cy="206" cx="271" stroke-linecap="null" stroke-linejoin="null" stroke-dasharray="null" stroke-width="5" stroke="#351101" fill="#511d03"/>
  <ellipse id="svg_12" ry="15" rx="20" cy="254" cx="392" stroke-linecap="null" stroke-linejoin="null" stroke-dasharray="null" stroke-width="5" stroke="#351101" fill="#511d03"/>
  <ellipse id="svg_13" ry="8.5" rx="8" cy="317.5" cx="482" stroke-linecap="null" stroke-linejoin="null" stroke-dasharray="null" stroke-width="5" stroke="#351101" fill="#511d03"/>
  <ellipse id="svg_14" ry="19.5" rx="17.5" cy="335.5" cx="392.5" stroke-linecap="null" stroke-linejoin="null" stroke-dasharray="null" stroke-width="5" stroke="#351101" fill="#511d03"/>
  <ellipse id="svg_15" ry="3.5" rx="5" cy="269.5" cx="307" stroke-linecap="null" stroke-linejoin="null" stroke-dasharray="null" stroke-width="5" stroke="#351101" fill="#511d03"/>
  <ellipse id="svg_16" ry="21" rx="20.5" cy="263" cx="195.5" stroke-linecap="null" stroke-linejoin="null" stroke-dasharray="null" stroke-width="5" stroke="#351101" fill="#511d03"/>
  <ellipse id="svg_17" ry="8.5" rx="14.5" cy="334.5" cx="263.5" stroke-linecap="null" stroke-linejoin="null" stroke-dasharray="null" stroke-width="5" stroke="#351101" fill="#511d03"/>
  <ellipse id="svg_18" ry="11.5" rx="11" cy="358.5" cx="345" stroke-linecap="null" stroke-linejoin="null" stroke-dasharray="null" stroke-width="5" stroke="#351101" fill="#511d03"/>
  <ellipse id="svg_19" ry="15" rx="19" cy="408" cx="419" stroke-linecap="null" stroke-linejoin="null" stroke-dasharray="null" stroke-width="5" stroke="#351101" fill="#511d03"/>
  <ellipse id="svg_20" ry="17" rx="24.5" cy="398" cx="279.5" stroke-linecap="null" stroke-linejoin="null" stroke-dasharray="null" stroke-width="5" stroke="#351101" fill="#511d03"/>
  <ellipse id="svg_21" ry="11.5" rx="11" cy="353.5" cx="180" stroke-linecap="null" stroke-linejoin="null" stroke-dasharray="null" stroke-width="5" stroke="#351101" fill="#511d03"/>
  <ellipse id="svg_22" ry="5.5" rx="5.5" cy="132.5" cx="474.5" stroke-linecap="null" stroke-linejoin="null" stroke-dasharray="null" stroke-width="5" stroke="#351101" fill="#511d03"/>
  <ellipse id="svg_23" ry="5.5" rx="5" cy="63.5" cx="241" stroke-linecap="null" stroke-linejoin="null" stroke-dasharray="null" stroke-width="5" stroke="#351101" fill="#511d03"/>
  <ellipse id="svg_24" ry="9.5" rx="14.5" cy="456.5" cx="337.5" stroke-linecap="null" stroke-linejoin="null" stroke-dasharray="null" stroke-width="5" stroke="#351101" fill="#511d03"/>
  <ellipse id="svg_25" ry="15.5" rx="15" cy="253.5" cx="515" stroke-linecap="null" stroke-linejoin="null" stroke-dasharray="null" stroke-width="5" stroke="#351101" fill="#511d03"/>
 </g>
</svg>